<mxfile host="app.diagrams.net" modified="2021-05-20T03:02:14.011Z" agent="5.0 (Windows NT 10.0; Win64; x64) AppleWebKit/537.36 (KHTML, like Gecko) Chrome/90.0.4430.212 Safari/537.36" etag="LvN41-teK_8JxHckzePi" version="14.6.13" type="github">
  <diagram id="C5RBs43oDa-KdzZeNtuy" name="Page-1">
    <mxGraphModel dx="782" dy="507" grid="1" gridSize="10" guides="1" tooltips="1" connect="1" arrows="1" fold="1" page="1" pageScale="1" pageWidth="827" pageHeight="1169" math="0" shadow="0">
      <root>
        <mxCell id="WIyWlLk6GJQsqaUBKTNV-0" />
        <mxCell id="WIyWlLk6GJQsqaUBKTNV-1" parent="WIyWlLk6GJQsqaUBKTNV-0" />
        <mxCell id="WIyWlLk6GJQsqaUBKTNV-2" value="" style="rounded=0;html=1;jettySize=auto;orthogonalLoop=1;fontSize=11;endArrow=block;endFill=0;endSize=8;strokeWidth=1;shadow=0;labelBackgroundColor=none;edgeStyle=orthogonalEdgeStyle;" parent="WIyWlLk6GJQsqaUBKTNV-1" edge="1">
          <mxGeometry relative="1" as="geometry">
            <mxPoint x="224.5" y="120" as="sourcePoint" />
            <mxPoint x="224.5" y="170" as="targetPoint" />
          </mxGeometry>
        </mxCell>
        <mxCell id="EJVsJLZKnvQaTSiLqkKH-0" value="Start" style="ellipse;whiteSpace=wrap;html=1;" vertex="1" parent="WIyWlLk6GJQsqaUBKTNV-1">
          <mxGeometry x="180" y="60" width="90" height="60" as="geometry" />
        </mxCell>
        <mxCell id="EJVsJLZKnvQaTSiLqkKH-1" value="Generate random number (from 1 to 6)" style="rounded=1;whiteSpace=wrap;html=1;" vertex="1" parent="WIyWlLk6GJQsqaUBKTNV-1">
          <mxGeometry x="165" y="170" width="120" height="60" as="geometry" />
        </mxCell>
        <mxCell id="EJVsJLZKnvQaTSiLqkKH-2" value="" style="rounded=0;html=1;jettySize=auto;orthogonalLoop=1;fontSize=11;endArrow=block;endFill=0;endSize=8;strokeWidth=1;shadow=0;labelBackgroundColor=none;edgeStyle=orthogonalEdgeStyle;" edge="1" parent="WIyWlLk6GJQsqaUBKTNV-1">
          <mxGeometry relative="1" as="geometry">
            <mxPoint x="224.5" y="120" as="sourcePoint" />
            <mxPoint x="224.5" y="170" as="targetPoint" />
          </mxGeometry>
        </mxCell>
        <mxCell id="EJVsJLZKnvQaTSiLqkKH-3" value="" style="rounded=0;html=1;jettySize=auto;orthogonalLoop=1;fontSize=11;endArrow=block;endFill=0;endSize=8;strokeWidth=1;shadow=0;labelBackgroundColor=none;edgeStyle=orthogonalEdgeStyle;" edge="1" parent="WIyWlLk6GJQsqaUBKTNV-1">
          <mxGeometry relative="1" as="geometry">
            <mxPoint x="224.5" y="230" as="sourcePoint" />
            <mxPoint x="224.5" y="280" as="targetPoint" />
          </mxGeometry>
        </mxCell>
        <mxCell id="EJVsJLZKnvQaTSiLqkKH-4" value="Get user&#39;s guess" style="shape=parallelogram;perimeter=parallelogramPerimeter;whiteSpace=wrap;html=1;fixedSize=1;" vertex="1" parent="WIyWlLk6GJQsqaUBKTNV-1">
          <mxGeometry x="165" y="280" width="120" height="60" as="geometry" />
        </mxCell>
        <mxCell id="EJVsJLZKnvQaTSiLqkKH-5" value="" style="rounded=0;html=1;jettySize=auto;orthogonalLoop=1;fontSize=11;endArrow=block;endFill=0;endSize=8;strokeWidth=1;shadow=0;labelBackgroundColor=none;edgeStyle=orthogonalEdgeStyle;" edge="1" parent="WIyWlLk6GJQsqaUBKTNV-1">
          <mxGeometry relative="1" as="geometry">
            <mxPoint x="224.5" y="340" as="sourcePoint" />
            <mxPoint x="224.5" y="390" as="targetPoint" />
          </mxGeometry>
        </mxCell>
        <mxCell id="EJVsJLZKnvQaTSiLqkKH-6" value="Stop" style="strokeWidth=1;html=1;shape=mxgraph.flowchart.terminator;whiteSpace=wrap;" vertex="1" parent="WIyWlLk6GJQsqaUBKTNV-1">
          <mxGeometry x="175" y="720" width="100" height="60" as="geometry" />
        </mxCell>
        <mxCell id="EJVsJLZKnvQaTSiLqkKH-7" value="If&lt;br&gt;userNumber == randomNumber" style="strokeWidth=1;html=1;shape=mxgraph.flowchart.decision;whiteSpace=wrap;" vertex="1" parent="WIyWlLk6GJQsqaUBKTNV-1">
          <mxGeometry x="156.25" y="390" width="137.5" height="140" as="geometry" />
        </mxCell>
        <mxCell id="EJVsJLZKnvQaTSiLqkKH-8" value="" style="rounded=0;html=1;jettySize=auto;orthogonalLoop=1;fontSize=11;endArrow=block;endFill=0;endSize=8;strokeWidth=1;shadow=0;labelBackgroundColor=none;edgeStyle=orthogonalEdgeStyle;" edge="1" parent="WIyWlLk6GJQsqaUBKTNV-1">
          <mxGeometry relative="1" as="geometry">
            <mxPoint x="224.5" y="530" as="sourcePoint" />
            <mxPoint x="224.5" y="580" as="targetPoint" />
          </mxGeometry>
        </mxCell>
        <mxCell id="EJVsJLZKnvQaTSiLqkKH-9" value="" style="rounded=0;html=1;jettySize=auto;orthogonalLoop=1;fontSize=11;endArrow=block;endFill=0;endSize=8;strokeWidth=1;shadow=0;labelBackgroundColor=none;edgeStyle=orthogonalEdgeStyle;" edge="1" parent="WIyWlLk6GJQsqaUBKTNV-1">
          <mxGeometry relative="1" as="geometry">
            <mxPoint x="293.75" y="459.5" as="sourcePoint" />
            <mxPoint x="350" y="460" as="targetPoint" />
            <Array as="points">
              <mxPoint x="340" y="460" />
              <mxPoint x="340" y="460" />
            </Array>
          </mxGeometry>
        </mxCell>
        <mxCell id="EJVsJLZKnvQaTSiLqkKH-11" value="Show picked number&lt;br&gt;correctly&lt;br&gt;(&quot;You guessed correctly!&lt;br&gt;Great job!&quot;)" style="shape=parallelogram;html=1;strokeWidth=1;perimeter=parallelogramPerimeter;whiteSpace=wrap;rounded=1;arcSize=12;size=0.23;" vertex="1" parent="WIyWlLk6GJQsqaUBKTNV-1">
          <mxGeometry x="136.25" y="580" width="177.5" height="110" as="geometry" />
        </mxCell>
        <mxCell id="EJVsJLZKnvQaTSiLqkKH-12" value="Yes" style="text;html=1;resizable=0;autosize=1;align=center;verticalAlign=middle;points=[];fillColor=none;strokeColor=none;rounded=0;" vertex="1" parent="WIyWlLk6GJQsqaUBKTNV-1">
          <mxGeometry x="230" y="540" width="30" height="20" as="geometry" />
        </mxCell>
        <mxCell id="EJVsJLZKnvQaTSiLqkKH-13" value="" style="rounded=0;html=1;jettySize=auto;orthogonalLoop=1;fontSize=11;endArrow=block;endFill=0;endSize=8;strokeWidth=1;shadow=0;labelBackgroundColor=none;edgeStyle=orthogonalEdgeStyle;" edge="1" parent="WIyWlLk6GJQsqaUBKTNV-1">
          <mxGeometry relative="1" as="geometry">
            <mxPoint x="224.5" y="670" as="sourcePoint" />
            <mxPoint x="224.5" y="720" as="targetPoint" />
          </mxGeometry>
        </mxCell>
        <mxCell id="EJVsJLZKnvQaTSiLqkKH-14" value="No" style="text;html=1;resizable=0;autosize=1;align=center;verticalAlign=middle;points=[];fillColor=none;strokeColor=none;rounded=0;" vertex="1" parent="WIyWlLk6GJQsqaUBKTNV-1">
          <mxGeometry x="300" y="430" width="30" height="20" as="geometry" />
        </mxCell>
        <mxCell id="EJVsJLZKnvQaTSiLqkKH-15" value="Show randomNumber&lt;br&gt;(&quot;Sorry, you guessed&lt;br&gt;incorrectly. Try again :(&quot;)" style="shape=parallelogram;html=1;strokeWidth=1;perimeter=parallelogramPerimeter;whiteSpace=wrap;rounded=1;arcSize=12;size=0.23;" vertex="1" parent="WIyWlLk6GJQsqaUBKTNV-1">
          <mxGeometry x="325" y="410" width="185" height="110" as="geometry" />
        </mxCell>
        <mxCell id="EJVsJLZKnvQaTSiLqkKH-16" value="" style="rounded=0;html=1;jettySize=auto;orthogonalLoop=1;fontSize=11;endArrow=block;endFill=0;endSize=8;strokeWidth=1;shadow=0;labelBackgroundColor=none;edgeStyle=orthogonalEdgeStyle;entryX=1;entryY=0.5;entryDx=0;entryDy=0;entryPerimeter=0;" edge="1" parent="WIyWlLk6GJQsqaUBKTNV-1" target="EJVsJLZKnvQaTSiLqkKH-6">
          <mxGeometry relative="1" as="geometry">
            <mxPoint x="413" y="520" as="sourcePoint" />
            <mxPoint x="413" y="760" as="targetPoint" />
            <Array as="points">
              <mxPoint x="413" y="750" />
            </Array>
          </mxGeometry>
        </mxCell>
      </root>
    </mxGraphModel>
  </diagram>
</mxfile>
